HIERARCHY
ROOT root
{
	OFFSET	0	13.1	24.9
	CHANNELS 6  Xposition Yposition Zposition Xrotation Yrotation Zrotation
	JOINT spine_1
	{
		OFFSET	0	9.99999	0
		CHANNELS 3  Xrotation Yrotation Zrotation
		JOINT spine_2
		{
			OFFSET	0	112	-10
			CHANNELS 3  Xrotation Yrotation Zrotation
			JOINT spine_3
			{
				OFFSET	0	206.5	19.3
				CHANNELS 3  Xrotation Yrotation Zrotation
				JOINT spine_4
				{
					OFFSET	0	110.4	14.6
					CHANNELS 3  Xrotation Yrotation Zrotation
					JOINT neck_1
					{
						OFFSET	0	71.8	-50.3
						CHANNELS 3  Xrotation Yrotation Zrotation
						JOINT neck_2
						{
							OFFSET	0	86.2	-25.8
							CHANNELS 3  Xrotation Yrotation Zrotation
							JOINT head_ee
							{
								OFFSET	0	179.8	-8.7
								CHANNELS 3  Xrotation Yrotation Zrotation
								End Site
								{
									OFFSET	1	0	0
								}
							}
						}
					}
					JOINT left_clavicle
					{
						OFFSET	-43.2	22.4	-70.8
						CHANNELS 3  Xrotation Yrotation Zrotation
						JOINT left_shoulder
						{
							OFFSET	-93.9	-5.79999	48.7
							CHANNELS 3  Xrotation Yrotation Zrotation
							JOINT left_elbow
							{
								OFFSET	-291.4	-30.8	15.2
								CHANNELS 3  Xrotation Yrotation Zrotation
								JOINT left_lowarm_twist
								{
									OFFSET	-110.7	-3.89999	13.6
									CHANNELS 3  Xrotation Yrotation Zrotation
									JOINT left_hand
									{
										OFFSET	-110.7	-3.89999	13.6
										CHANNELS 3  Xrotation Yrotation Zrotation
										JOINT left_ee
										{
											OFFSET	-80.8	-5.10001	12.1
											CHANNELS 3  Xrotation Yrotation Zrotation
											End Site
											{
												OFFSET	1	0	0
											}
										}
									}
								}
							}
						}
					}
					JOINT right_clavicle
					{
						OFFSET	43.2	22.4	-70.8
						CHANNELS 3  Xrotation Yrotation Zrotation
						JOINT right_shoulder
						{
							OFFSET	93.9	-5.79999	48.7
							CHANNELS 3  Xrotation Yrotation Zrotation
							JOINT right_elbow
							{
								OFFSET	291.4	-30.8	15.2
								CHANNELS 3  Xrotation Yrotation Zrotation
								JOINT right_lowarm_twist
								{
									OFFSET	110.7	-3.89999	13.6
									CHANNELS 3  Xrotation Yrotation Zrotation
									JOINT right_hand
									{
										OFFSET	110.7	-3.89999	13.6
										CHANNELS 3  Xrotation Yrotation Zrotation
										JOINT right_ee
										{
											OFFSET	80.8	-5.10001	12.1
											CHANNELS 3  Xrotation Yrotation Zrotation
											End Site
											{
												OFFSET	1	0	0
											}
										}
									}
								}
							}
						}
					}
				}
			}
		}
	}
	JOINT left_hip
	{
		OFFSET	-82.8	-127.5	0.300001
		CHANNELS 3  Xrotation Yrotation Zrotation
		JOINT left_knee
		{
			OFFSET	-28.2	-396.7	2.2
			CHANNELS 3  Xrotation Yrotation Zrotation
			JOINT left_ankle
			{
				OFFSET	-11.7	-411.3	35.4
				CHANNELS 3  Xrotation Yrotation Zrotation
				JOINT left_toes
				{
					OFFSET	0	-60	-88.6
					CHANNELS 3  Xrotation Yrotation Zrotation
					JOINT left_foot_ee
					{
						OFFSET	-22.5	-16.5	-42.2
						CHANNELS 3  Xrotation Yrotation Zrotation
						End Site
						{
							OFFSET	1	0	0
						}
					}
				}
			}
		}
	}
	JOINT right_hip
	{
		OFFSET	82.8	-127.5	0.300001
		CHANNELS 3  Xrotation Yrotation Zrotation
		JOINT right_knee
		{
			OFFSET	28.2	-396.7	2.2
			CHANNELS 3  Xrotation Yrotation Zrotation
			JOINT right_ankle
			{
				OFFSET	11.7	-411.3	35.4
				CHANNELS 3  Xrotation Yrotation Zrotation
				JOINT right_toes
				{
					OFFSET	0	-60	-88.6
					CHANNELS 3  Xrotation Yrotation Zrotation
					JOINT right_foot_ee
					{
						OFFSET	22.5	-16.5	-42.2
						CHANNELS 3  Xrotation Yrotation Zrotation
						End Site
						{
							OFFSET	1	0	0
						}
					}
				}
			}
		}
	}
}
MOTION
Frames: 6
Frame Time: 0.02
3574.42 741.953 -1474.73 41.1513193463 82.0823946741 -44.9294251332 -4.50902 0.612867 1.34305 -4.50817 0.526172 1.37932 -4.49329 0.109604 1.47218 -4.49615 0.340707 1.43641 -12.8264 15.0439 8.5491 -12.9667 23.2848 12.6325 -0.0 0.0 -0.0 7.5621 13.9853 14.1357 -12.8029 -17.2112 61.3652 1.45846 -35.845 0.471724 -10.6452 -0.49431 1.26612 -1.78784 27.1061 0.794639 -0.0 0.0 -0.0 13.4621 27.6592 -26.538 -5.75876 14.7429 -52.0304 0.765095 20.7569 -0.140126 45.3079 0.653739 5.60216 0.621767 -26.2607 -13.9286 0.0 0.0 0.0 -7.42252 13.7342 6.20539 -7.14868 0.227644 1.07278 7.04466 28.8271 -1.08125 8.0488 -0.0 -0.0 -0.0 0.0 -0.0 8.259 -20.5939 12.8251 -20.796 -0.285328 -3.16106 4.50811 31.7586 0.850528 25.0116 -0.0 -0.0 0.0 0.0 0.0 
3571.47773095 741.371 -1472.64384257 40.2917578033 81.0002076821 -44.5312424655 -4.60114 0.529484 1.37676 -4.60019 0.440813 1.40766 -4.5871 0.017261 1.47495 -4.59005 0.24996 1.45372 -10.7337 14.7143 10.5262 -10.6013 20.8475 13.9789 -0.0 0.0 -0.0 7.80121 13.6088 14.5734 -12.5385 -15.808 61.6007 1.41576 -35.041 0.446966 -10.179 -0.467781 1.21271 -1.58633 27.3844 2.02708 -0.0 0.0 -0.0 13.5688 28.1121 -26.7236 -5.0038 13.8957 -51.9529 0.748445 20.3426 -0.134282 44.9548 0.631748 5.56269 0.63915 -26.3767 -14.0658 0.0 0.0 0.0 -9.79101 15.7551 8.24014 -7.45865 0.23447 1.11986 11.1916 28.8568 -1.69716 8.07905 -0.0 -0.0 -0.0 0.0 -0.0 10.1086 -25.0715 13.8552 -21.7824 -0.270203 -3.31167 3.21907 29.4644 0.590751 27.7832 -0.0 -0.0 0.0 0.0 0.0 
3570.39948123 741.83 -1471.12573464 40.4065483629 81.004711783 -45.0613023477 -4.52642 0.574301 1.40904 -4.52544 0.483486 1.44271 -4.51089 0.0500828 1.52073 -4.514 0.289599 1.49375 -10.4097 14.6796 8.39267 -10.4012 22.1264 11.893 -0.0 0.0 -0.0 7.66764 14.3474 14.2883 -11.9619 -14.9212 62.1998 1.4373 -35.4486 0.459393 -10.173 -0.467442 1.21202 -1.61741 28.495 2.36377 -0.0 0.0 -0.0 13.3478 28.1911 -26.2023 -5.21409 14.3534 -52.2295 0.731285 19.9133 -0.128376 44.5137 0.604618 5.5132 0.649001 -27.7253 -14.5475 0.0 0.0 0.0 -9.7521 14.4821 8.7365 -7.57051 0.236871 1.13686 12.4232 28.7246 -1.87484 7.50099 -0.0 -0.0 -0.0 0.0 -0.0 7.62976 -19.2375 13.9111 -21.3459 -0.277215 -3.24505 5.17024 30.0329 0.949576 27.2497 -0.0 -0.0 0.0 0.0 0.0 
3562.87635224 737.437 -1473.29769546 42.2700987052 79.961639818 -47.3301287209 -4.77357 0.689214 1.69732 -4.77216 0.579829 1.73772 -4.751 0.05027 1.83119 -4.75552 0.338794 1.80028 -11.282 14.6998 8.50033 -11.3149 22.3007 12.1666 -0.0 0.0 -0.0 7.40369 14.2926 13.8446 -12.735 -16.3394 61.1616 1.46571 -35.98 0.475978 -9.28981 -0.418387 1.11024 -1.50009 26.1766 1.95512 -0.0 0.0 -0.0 13.4217 27.3762 -26.4819 -6.08329 15.1328 -52.3444 0.824159 22.2083 -0.161758 44.505 0.604084 5.51222 0.333995 -27.6853 -12.7548 0.0 0.0 0.0 -9.39278 13.3044 8.42744 -12.4036 0.308799 1.87476 14.1604 28.5654 -2.12233 11.0353 -0.0 -0.0 -0.0 0.0 -0.0 7.08556 -21.7347 14.4113 -21.4063 -0.276275 -3.25428 6.6483 30.8833 1.22861 25.5061 -0.0 -0.0 0.0 0.0 0.0 
3559.5223652 737.376 -1476.66175499 40.5070621446 78.7538693431 -45.5422373976 -4.81963 0.88777 1.86923 -4.81802 0.767049 1.92191 -4.78776 0.174732 2.06188 -4.79335 0.498109 2.00845 -10.4412 15.1982 7.93728 -10.4794 23.4243 11.6071 -0.0 0.0 -0.0 7.23263 13.7374 13.5908 -13.0351 -17.3394 60.359 1.44214 -35.5397 0.462206 -8.60586 -0.381483 1.03092 -1.436 25.6033 2.05446 -0.0 0.0 -0.0 13.4682 26.7047 -26.6756 -6.4995 15.7731 -53.1829 0.805145 21.7442 -0.154643 44.9341 0.630468 5.56038 0.306626 -27.5382 -12.5519 0.0 0.0 0.0 -9.76071 12.2846 8.20662 -13.6648 0.317308 2.06808 16.08 28.3944 -2.39101 12.9586 -0.0 -0.0 -0.0 0.0 -0.0 5.86372 -21.9956 13.7696 -20.2304 -0.292829 -3.0746 6.9094 31.391 1.28479 24.4768 -0.0 -0.0 0.0 0.0 0.0 
3559.5556395 737.376 -1476.90301333 37.6556315508 78.0325888087 -42.6313650583 -4.81963 0.88777 1.86923 -4.81802 0.767049 1.92191 -4.78776 0.174732 2.06188 -4.79335 0.498109 2.00845 -10.4412 15.1982 7.93728 -10.4794 23.4243 11.6071 -0.0 0.0 -0.0 7.23263 13.7374 13.5908 -13.0351 -17.3394 60.359 1.44214 -35.5397 0.462206 -8.60586 -0.381483 1.03092 -1.436 25.6033 2.05446 -0.0 0.0 -0.0 13.4682 26.7047 -26.6756 -6.4995 15.7731 -53.1829 0.805145 21.7442 -0.154643 44.9341 0.630468 5.56038 0.306626 -27.5382 -12.5519 0.0 0.0 0.0 -9.76071 12.2846 8.20662 -13.6648 0.317308 2.06808 16.08 28.3944 -2.39101 12.9586 -0.0 -0.0 -0.0 0.0 -0.0 5.86372 -21.9956 13.7696 -20.2304 -0.292829 -3.0746 6.9094 31.391 1.28479 24.4768 -0.0 -0.0 0.0 0.0 0.0 
